<svg width="175" height="125" xmlns="http://www.w3.org/2000/svg">

 <g>
  <title>Layer 1</title>
  <g>
   <desc>Created with Fabric.js 3.6.6</desc>

   <g transform="matrix(0.835231, 0, 0, 0.84339, 316.794, 263.855)">
    <path fill-rule=" nonzero" fill=" rgb(35,31,32)" stroke-miterlimit="4" stroke-linejoin=" miter" stroke-dashoffset="0" stroke-dasharray=" none" stroke=" none" stroke-linecap=" butt" d="m-242.84431,-177.36706c-1.235,-0.902 -3.038,-3.605 -3.038,-3.605s0.702,0.4 3.907,1.203c3.205,0.8 7.444,-0.668 10.114,-1.97c2.671,-1.302 7.11,-1.436 9.448,-1.336c2.336,0.101 4.707,0.602 4.373,2.036c-0.334,1.437 -5.742,3.94 -5.742,3.94s0.4,0.334 1.236,0.334c0.833,0 6.075,-1.403 6.542,-4.173s-1.802,-8.377 -3.272,-9.013c-1.468,-0.633 -4.172,0 -4.172,0c4.039,1.438 4.941,6.176 4.941,6.176c-2.604,-1.504 -9.279,-1.234 -12.619,0.501c-3.337,1.736 -8.379,2.67 -10.083,2.503c-1.701,-0.167 -3.571,-1.036 -3.571,-1.036c1.837,0.034 3.239,-2.669 3.239,-2.669s-2.068,2.269 -5.542,0.434c-3.47,-1.837 -1.704,-8.18 -1.704,-8.18s-2.937,5.909 -1,9.816c1.937,3.904 6.943,5.039 6.943,5.039zm37.5,-21.051c0,0 -1.78,-5.03 -2.804,-8.546l-1.557,8.411l1.646,1.602c0,0 0,-0.622 -0.668,-1.691c-0.667,-1.068 2.894,-0.177 3.383,0.224zm25.987,46.171m-0.593,-0.519c0.25,0.22 0.447,0.391 0.594,0.519c-0.194,-0.169 -0.419,-0.365 -0.594,-0.519zm67.011,32.95c-0.09,-5.429 -3.917,-3.914 -3.917,-2.402c0,0 -11.396,1.603 -13.086,-6.677c0,0 3.56,-5.43 1.69,-12.461c-0.575,-2.163 -1.691,-5.337 -3.637,-8.605c11.104,2.121 21.701,-5.08 19.038,-15.519c-3.34,-13.087 -19.63,-9.481 -24.437,-9.349c-4.809,0.135 -13.486,-2.002 -8.011,-11.618c5.473,-9.613 18.024,-5.874 18.024,-5.874c-2.136,0.668 -4.674,4.807 -4.674,4.807c9.748,-6.811 22.301,4.541 22.301,4.541c-3.097,-13.678 -23.153,-14.636 -30.041,-12.635c-4.286,-0.377 -5.241,-3.391 -3.073,-6.637c2.314,-3.473 10.503,-13.976 10.503,-13.976s-2.048,2.046 -6.231,4.005c-4.184,1.96 -6.321,-2.227 -4.362,-6.854c1.96,-4.627 8.191,-16.559 8.191,-16.559c-1.96,3.207 -24.571,31.247 -21.723,26.707c2.85,-4.541 5.253,-11.93 5.253,-11.93c-2.849,6.943 -22.434,25.283 -30.713,34.274s-5.786,19.583 -4.005,21.987c0.43,0.58 0.601,0.972 0.62,1.232c-4.868,-3.052 -3.884,-13.936 -0.264,-19.66c3.829,-6.053 18.427,-20.207 18.427,-20.207l0,-1.336c0,0 0.444,-1.513 -0.089,-0.444c-0.535,1.068 -3.65,1.245 -3.384,-0.889c0.268,-2.137 -0.356,-8.549 -0.356,-8.549s-1.157,5.789 -2.758,5.61c-1.603,-0.179 -2.493,-2.672 -2.405,-5.432c0.089,-2.758 -1.157,-9.702 -1.157,-9.702c-0.8,11.75 -8.277,8.011 -8.277,3.74c0,-4.274 -4.541,-12.82 -4.541,-12.82s2.403,14.421 -1.336,14.421c-3.737,0 -6.944,-5.074 -9.879,-9.882c-2.937,-4.807 -12.819,-10.681 -12.819,-10.681c13.428,16.088 17.656,32.111 18.397,44.512c-1.793,0.422 -2.908,2.224 -2.908,2.224c0.356,-2.847 -0.624,-7.745 -1.245,-9.882c-0.624,-2.137 -1.159,-9.168 -1.159,-9.168c0,2.67 -0.979,5.253 -2.048,9.079c-1.068,3.828 -0.801,6.054 -0.801,6.054c-1.068,-2.227 -4.271,-2.137 -4.271,-2.137c1.336,1.783 0.177,2.493 0.177,2.493s0,0 -1.424,-1.601c-1.424,-1.603 -3.473,-0.981 -3.384,0.265c0.089,1.247 0,1.959 -2.849,1.959c-2.846,0 -5.874,-3.47 -9.078,-3.116c-3.206,0.356 -5.521,2.137 -5.698,6.678c-0.179,4.541 1.869,5.251 1.869,5.251c-0.801,-0.443 -0.891,-1.067 -0.891,-3.473c0,-2.402 2.492,-1.423 2.492,-1.423c-0.089,4.54 2.672,4.452 2.672,4.452c-0.98,-2.674 -0.712,-4.187 3.561,-4.008c4.273,0.177 5.429,7.123 5.518,9.079c0.091,1.96 -1.157,3.029 -2.669,3.917c-1.515,0.892 -2.938,2.228 -5.432,2.049c-2.492,-0.177 -1.69,-4.986 -1.69,-4.986c-3.028,1.96 -1.692,5.7 -1.692,5.7c-1.869,-0.18 -2.227,-3.028 -2.227,-3.028c-0.889,1.692 -0.8,4.361 -0.177,5.429c0.622,1.069 -0.533,3.562 -0.533,3.562s1.601,-0.445 1.601,-1.247s1.068,-1.871 1.068,-1.871s-0.356,1.604 -0.089,2.672c0.268,1.069 -1.512,1.603 -1.512,1.603c2.937,0.979 5.342,-2.493 6.587,-4.185c0.794,-1.077 5.074,-3.804 8.087,-5.65l0.214,0.353c2.603,-0.401 4.941,-1.336 4.607,0.601s-0.867,2.67 -4.206,4.408c-3.146,1.635 -9.545,6.532 -11.284,13.681l-0.001,-0.061c-0.12,0.213 -0.409,1.153 -0.706,2.568c-0.839,-0.1 -2.799,0.303 -5.257,5.02c-3.293,6.321 -0.98,9.081 0.179,10.148c0.496,0.46 1.144,1.167 1.72,1.825c-1.119,-0.958 -3.014,-2.033 -6.082,-2.358c-5.875,-0.622 -9.614,-0.624 -11.306,-2.672c-1.692,-2.045 -4.184,-2.759 -5.788,-1.423c-1.601,1.336 -5.963,3.473 -8.011,3.473s-5.342,-1.159 -7.657,-2.226c-2.313,-1.071 -3.56,1.512 -3.56,1.512s-0.979,-0.179 -3.205,-0.179c-2.225,0 -3.472,2.137 -3.472,2.137s-4.716,1.159 -4.716,4.006c0,2.85 2.493,3.027 2.493,3.027s-2.849,-3.027 3.026,-4.986c0,0 1.603,1.246 3.828,1.246s2.76,0 2.76,0s-1.069,1.336 -0.889,2.316c0.177,0.979 -3.205,2.403 -1.871,5.696c0,0 1.96,-3.65 3.116,-3.026c1.157,0.624 2.76,0.09 3.649,-0.712c0.892,-0.801 5.164,-2.582 8.013,-2.493c0.157,0.006 0.293,0.01 0.419,0.016c0.299,0.446 1.721,2.255 5.457,2.565c4.273,0.357 3.738,2.581 2.314,3.472s-2.76,1.157 -2.76,1.157s4.985,0.445 5.698,-1.958c0.712,-2.402 0.445,-7.298 -3.294,-6.677c-3.738,0.626 -4.273,0.356 -4.718,-0.445c-0.444,-0.798 0,-1.067 2.76,-1.333c2.76,-0.267 5.609,-0.355 8.19,2.047c2.583,2.403 10.862,7.123 15.845,7.123c4.984,0 6.41,0.71 6.41,0.71s-0.158,-3.636 0.908,-3.586c0.669,0.693 1.409,1.342 2.253,1.918c2.695,1.785 4.096,2.5 4.824,2.77c-0.926,1.025 -1.909,2.373 -2.688,4.107c-2.071,4.605 -9.415,12.686 -10.883,13.755c-1.468,1.066 -3.539,0.466 -3.539,0.466s0.2,1.002 0.803,1.069c0.601,0.067 -3.738,0.867 -5.007,0.067c-1.269,-0.803 -3.406,-2.004 -4.207,-3.141c-0.801,-1.134 -2.537,0.334 -2.67,1.269s-0.133,0.935 -0.133,0.935s-2.672,-1.066 -3.606,-2.136s-4.874,-1.535 -5.941,0.067c-0.475,0.709 -0.501,0.935 -0.385,0.964c-1.024,0.519 -3.22,2.004 -3.22,5.177c0,4.14 2.536,5.145 2.536,5.145s-2.67,-3.006 1.937,-7.213c0,0 0.268,1.603 2.871,1.67s6.343,1.67 6.343,1.67s-4.474,-0.671 -5.542,3.27c-1.068,3.938 2.537,6.876 2.537,6.876s-1.803,-5.007 1.203,-6.741c0,0 0.867,2.335 5.607,2.335s6.943,-4.673 11.685,-4.673c4.74,0 4.003,3.006 7.409,3.006s4.608,-2.206 4.608,-0.536c0,1.673 -0.335,2.136 -0.335,2.136s3.141,-1.066 2.539,-4.805c-0.601,-3.741 -4.808,-3.606 -6.075,-2.537c-1.27,1.066 -4.409,-0.601 -3.139,-1.737c1.269,-1.134 2.536,-0.132 2.536,-0.132s0.604,-2.604 2.604,-3.806c2.004,-1.204 11.418,-10.617 14.423,-12.284c1.198,-0.668 2.121,-1.403 2.808,-2.054c1.991,0.305 9.088,1.251 11.3,-0.352c0,0 7.123,0.179 8.459,-2.405c0,0 4.628,-0.267 6.053,-2.314c1.256,-1.808 4.937,-3.402 5.785,-3.754c0.129,1.674 -0.87,7.07 -1.868,9.941c-1.069,3.073 2.804,7.567 4.051,9.926c1.246,2.358 0.622,3.428 -0.624,5.165c-1.245,1.734 -5.741,7.21 -9.791,7.21c-4.052,0 -4.72,-4.494 -6.143,-4.494c-1.424,0 -1.826,2.402 -1.826,2.402s-3.027,-3.56 -5.341,-3.56c-2.312,0 -2.805,1.022 -2.805,1.022c-7.565,1.737 -6.097,10.014 -6.097,10.014c0,-2.716 3.382,-6.363 4.408,-6.586c1.022,-0.226 1.868,-0.401 2.492,0.621c0.543,0.896 3.8,0.973 4.62,0.981c-0.421,0.041 -1.531,0.384 -3.151,2.625c-2.093,2.891 -0.268,6.143 -0.268,6.143c-0.267,-2.891 3.205,-3.471 5.432,-3.295c2.225,0.178 7.432,-0.354 8.144,-0.979c0.714,-0.621 2.894,-0.935 3.738,0.047c0.847,0.975 6.679,0.442 9.437,1.156c2.76,0.713 1.068,3.871 1.068,3.871s4.362,-1.646 4.362,-4.45s-3.383,-6.275 -5.341,-5.074c-1.96,1.201 -4.897,1.512 -4.897,1.512c0,-2.355 8.947,-10.904 10.729,-11.616c1.78,-0.712 2.492,-3.205 1.068,-4.052c-1.424,-0.844 -2.314,-2.355 -2.314,-6.407c0,-3.604 4.849,-8.324 5.922,-10.267c2.562,6.265 8.915,17.922 18.916,17.922c12.105,0 15.489,3.205 16.111,6.053c0.623,2.848 0.267,6.943 -3.561,6.943c-3.828,0 -4.807,-2.848 -8.724,-2.848c-2.049,-0.179 -2.139,1.336 -2.139,1.336s-5.072,-0.803 -6.141,6.853c0,0 2.671,-3.114 5.964,-2.669c3.294,0.445 2.227,1.957 6.054,1.957c0,0 -5.163,4.362 0.712,8.37c0,0 -1.425,-3.742 1.512,-3.742c2.938,0 1.069,0.713 4.364,0.713c3.293,0 7.834,-5.071 8.101,-9.079c0,0 1.87,3.026 3.115,3.026c-0.004,0 -4.9,-14.865 -4.989,-21.544zm-110.477,-74.152c-1.156,0 -2.134,-1.157 -0.177,-1.336c2.32,-0.211 4.005,2.493 4.005,2.493s-2.669,-1.157 -3.828,-1.157zm92.539,22.878c2.537,0 2.804,2.136 2.804,2.136c3.071,-4.673 9.882,0.267 9.08,0.668c-0.801,0.4 0.132,1.871 -0.801,1.871c-0.935,0 -1.201,1.202 -1.201,1.202s2.002,-0.134 2.002,0.801s1.736,0.667 1.736,0.667c-0.135,6.01 -3.872,7.078 -3.872,7.078s0.267,-2.004 -0.936,-1.869c-1.201,0.132 -1.335,-2.672 -1.335,-2.672c-1.735,0.536 -0.135,2.938 -1.603,3.073c-1.469,0.132 -1.069,2.804 -1.069,2.804s-4.138,0 -6.141,-0.267c-2.004,-0.269 -2.405,-1.604 -2.137,-2.271c0.267,-0.668 -0.802,-1.471 -0.535,-2.139c0.267,-0.665 1.603,-1.467 1.603,-1.467s2.804,0.131 -0.135,-0.534c-2.936,-0.667 -2.936,1.735 -4.271,1.867c-1.09,0.11 -1.639,1.273 -1.808,1.701c-1.791,-1.301 -3.844,-2.422 -6.183,-3.274c0.247,-1.129 -0.703,-0.895 -0.822,-2.432c-0.133,-1.736 1.468,-2.938 1.468,-2.938c-2.537,0 -4.406,2.537 -4.406,2.537c-1.17,0 -1.767,0.923 -2.005,1.421c-2.595,-0.352 -5.466,-0.388 -8.63,-0.048c3.038,-2.167 6.986,-2.485 6.986,-2.485s-5.253,-0.624 -3.384,-5.697c1.23,-3.337 4.876,-5.78 7.234,-7.068l0.066,0.39c2.672,8.281 15.756,6.945 18.295,6.945zm-54.778,9.888c0.036,0.436 -0.082,0.913 -0.485,1.399c0.226,-0.685 0.365,-1.125 0.485,-1.399zm-27.967,-26.623c0.623,0.536 1.601,-0.624 3.472,0.355c1.869,0.98 3.917,-0.533 3.917,-0.533l-3.116,-2.851c-2.493,1.603 -4.185,-2.046 -2.849,-3.024c1.334,-0.98 2.493,-2.404 3.738,-1.159c1.247,1.247 -0.267,3.562 -0.267,3.562l2.761,2.492c-0.268,-1.512 1.868,-2.404 1.868,-2.404s0.303,0.251 0.817,0.778c-0.442,-0.144 -0.729,-0.245 -0.729,-0.245s-1.78,0.445 -1.068,1.959c0.713,1.515 -3.826,3.293 -5.073,1.872c-0.923,-1.055 -2.626,0.334 -3.328,-0.56c-0.015,-0.018 -0.132,-0.166 -0.297,-0.371l0.154,0.129zm-0.18,9.831c0.385,-0.237 0.744,-0.454 1.08,-0.658c-0.522,0.497 -0.862,0.663 -1.08,0.658zm-13.261,46.429c-8.012,-0.355 -17.005,-7.744 -17.005,-7.744c9.615,6.677 17.983,6.853 17.983,6.853l-0.978,0.891zm12.996,-18.426c0,0 -2.08,2.858 -1.627,8.056c-0.193,6.951 1.627,9.503 1.627,9.503c-1.469,-2.07 -3.004,-2.403 -3.004,-2.403s1,0.734 2.068,1.804c0.36,0.359 0.628,1.057 0.828,1.819c-2.052,-0.691 -7.307,-2.997 -9.173,-8.965c0,0 1.403,3.273 7.345,1.404c0,0 -5.742,0.865 -7.478,-3.873c0,0 4.875,1.268 7.21,0c0,0 -6.81,0.332 -8.212,-2.539c-1.402,-2.869 -0.734,-3.738 -0.734,-3.738s3.072,3.203 7.879,2.669c0,0 -7.813,-2.201 -7.478,-6.476c0.059,-0.764 0.113,-1.345 0.16,-1.796c1.162,4.447 7.213,3.656 8.786,3.599c0,0 -10.214,0.267 -7.611,-8.745c0,0 0.199,3.005 6.41,3.14c0,0 -3.004,-0.27 -4.607,-2.739c-1.604,-2.47 -0.4,-4.137 0.869,-5.941c0,0 0.734,3.472 4.538,4.072c0,0 -2.735,-1.936 -3.337,-4.072c-0.601,-2.138 1.537,-2.872 1.537,-2.872s1.267,3.206 3.738,3.271c0,0 -3.205,-2.402 -2.738,-4.273c0.467,-1.869 2.137,-1.535 2.137,-1.535s0.533,2.804 2.402,3.07c0,0 -2.738,-2.738 -0.869,-4.271c1.871,-1.535 1.67,0.734 3.272,1.134c0,0 -2.404,-2.871 1,-3.806c3.406,-0.933 0.601,3.272 0.601,3.272s5.476,-2.67 4.942,-6.611c-0.417,-3.066 -4.626,-2.931 -7.261,-1.938l0.073,-0.042c-1.736,-0.788 -1.934,-3.319 -1.956,-5.001c0.103,0.328 0.174,0.62 0.174,0.819c0,1.422 1.159,2.936 2.314,3.737c0,0 -0.091,-1.157 2.492,-0.801c2.584,0.357 4.986,1.515 4.897,3.652s-2.227,6.05 -6.231,9.437c-3.74,3.157 -7.865,8.798 -5.429,16.121c0.308,-0.307 0.646,-0.582 1.03,-0.846c1.075,-0.733 2.017,-1.396 3.287,-1.772c0.319,-0.094 0.647,-0.164 0.984,-0.227l0.346,-0.305l0.004,0.001c0,0 2.035,0.105 4.104,0.441c-5.665,-0.339 -9.309,4.566 -9.309,4.566zm3.009,19.199l-0.023,0.013l0.01,-0.009l0.013,-0.004zm7.85,3.411c-0.533,1.781 -11.571,13.175 -16.201,15.58c-4.629,2.402 -5.518,4.717 -5.518,4.717s-0.801,-2.224 3.826,-4.808c4.63,-2.578 15.668,-13.529 16.292,-16.559c0.624,-3.024 -1.78,-2.76 -1.78,-2.76s3.472,-0.8 4.361,-10.235c0,0 0.356,8.1 -2.225,10.057c0,0 1.781,2.227 1.245,4.008zm-0.534,-32.137c0,0 -2.581,-0.179 0.356,-3.203c2.938,-3.028 4.808,-5.697 4.986,-4.987c0.177,0.712 1.512,1.336 2.225,0.445c0,0 -2.048,-1.422 -0.267,-4.273c1.78,-2.849 5.162,-11.751 2.226,-15.845c-2.939,-4.095 0.445,-4.095 0.445,-4.095s-1.67,-0.268 -2.664,0.222l-0.007,-0.044c-0.434,-1.406 0.217,-2.382 0.796,-2.935c0.039,0.743 0.071,1.476 0.086,2.19c0.226,-0.028 0.469,-0.043 0.743,-0.043c0.618,0 1.11,0.078 1.132,0.081c0.274,0.045 0.469,0.293 0.445,0.571c-0.021,0.276 -0.253,0.489 -0.531,0.489c-0.009,0 -0.796,0.021 -1.031,0.481c-0.122,0.234 -0.266,0.978 1.02,2.771c3.07,4.28 -0.287,13.369 -2.206,16.439c-0.27,0.432 -0.441,0.819 -0.54,1.167l1.155,0.996c0,0 3.205,0.936 3.205,3.338c0,1.229 2.506,2.593 4.961,3.638c-1.497,0.256 -5.525,0.502 -7.834,0.502c-2.402,0.004 -3.916,2.587 -8.701,2.095zm9.507,16.902c-0.803,-2.489 -1.91,-5.395 -3.557,-7.717c0.703,-1.322 1.883,-2.758 3.844,-3.396c4.095,-1.336 5.876,2.758 5.876,2.758s4.984,-4.539 7.834,-2.048c0,0 1.246,-4.184 5.963,-3.293c0,0 -0.712,-0.801 -0.8,-2.76c-0.091,-1.958 1.155,-3.027 4.094,-3.114c0,0 -3.026,-3.206 -0.267,-4.453c2.759,-1.247 5.429,-2.49 5.429,-2.49s-2.581,-0.535 -2.493,-2.672c0.09,-2.137 2.138,-4.986 7.213,-6.233c0,0 -3.027,-0.979 -3.027,-2.848c0,-1.871 3.206,-5.162 6.231,-6.676c0,0 -4.005,0.179 -4.362,-1.869c-0.356,-2.047 3.65,-6.677 6.32,-7.834c0,0 -2.848,-0.98 -2.136,-3.828c0.693,-2.773 6.444,-7.991 6.752,-8.266c-0.289,0.259 -4.795,4.269 -4.795,1.857c0,0 14.868,-18.34 16.558,-20.12c0,0 -5.25,8.367 -5.073,13.087c0.179,4.717 5.073,4.629 7.745,2.492c0,0 -5.519,7.745 -7.033,9.614c-1.513,1.871 -1.601,7.211 2.404,7.388c0,0 -10.95,6.588 -7.033,15.045c0,0 -8.546,3.56 -9.17,9.526c-0.71,3.204 1.603,4.094 1.603,4.094s-5.963,2.225 -7.565,5.965c-1.603,3.738 -0.357,7.834 -0.357,7.834s-9.079,-1.336 -9.524,6.852c0,0 -8.636,-1.156 -9.614,3.65c-0.002,0.001 -6.294,-5.368 -11.06,-0.545zm25.659,6.51c-1.96,1.514 -2.138,-1.246 -2.138,-1.246s-1.246,3.426 -2.672,4.852c-1.424,1.425 -2.937,-0.046 -2.67,-1.646c0,0 -1.336,2.937 -3.381,3.829c-2.048,0.889 -3.917,0.089 -3.384,-1.514c0,0 -1.069,1.868 -3.384,3.025c-1.708,0.856 -2.783,0.06 -3.123,-0.738c5.446,-1.295 11.852,-5.88 15.498,-7.096c2.468,-0.82 4.749,-3.381 7.181,-5.243c-0.091,1.494 -0.457,4.641 -1.927,5.777zm2.657,-3.769c-0.116,-1.029 -0.301,-1.763 -0.454,-2.219c1.053,-0.775 2.136,-1.406 3.276,-1.694c-0.469,2.542 -2.049,3.563 -2.822,3.913zm3.751,-2.237c0.152,-0.521 0.184,-1.16 0.146,-1.837c0.943,-0.05 1.929,0.155 2.969,0.725c0.233,0.125 0.441,0.26 0.656,0.391c-1.366,3.284 -4.43,2.96 -3.771,0.721zm7.212,3.339c-1.47,-1.336 -2.806,-2.096 -2.895,-2.982c-0.018,-0.187 0.053,-0.402 0.156,-0.621c1.67,1.161 2.797,2.467 3.548,3.664c0.16,0.473 0.304,0.916 0.433,1.328c-0.392,-0.516 -0.815,-1.003 -1.242,-1.389zm38.968,22.499c-0.068,-2.136 -0.602,-1.201 -2.271,-1.201s-12.352,-1.939 -16.558,-6.876c-4.205,-4.943 -8.479,-19.097 -10.615,-24.104c-2.138,-5.009 -13.688,-5.874 -13.688,-5.874s11.617,-0.202 14.755,5.739c3.138,5.944 5.408,22.033 12.887,25.974c7.478,3.94 13.352,3.539 13.352,3.539s1.937,-1.336 2.672,1.134c0.734,2.47 0.535,5.007 1.068,6.741c0,-0.001 -1.537,-2.937 -1.602,-5.072z" transform="translate(-87.2, -75)"/>
   </g>
   <g transform="matrix(0.960036, 0, 0, 0.969413, 382.259, 336.91)">
    <text x="-245.64128" y="-208.09535" fill-rule=" nonzero" fill=" rgb(0,0,0)" stroke-miterlimit="4" stroke-linejoin=" miter" stroke-dashoffset="0" stroke-linecap=" butt" stroke-dasharray=" none" stroke=" none" font-weight="normal" font-style="normal" font-size="18" font-family="'Open Sans', sans-serif" xml:space="preserve">
     <tspan y="5.74466" x="-78.33302">Xceed™</tspan>
    </text>
   </g>
  </g>
 </g>
</svg>